<?xml version="1.0" encoding="UTF-8"?>
<svg width="109px" height="27px" viewBox="0 0 109 27" version="1.1" xmlns="http://www.w3.org/2000/svg" xmlns:xlink="http://www.w3.org/1999/xlink">
    <!-- Generator: Sketch 49.2 (51160) - http://www.bohemiancoding.com/sketch -->
    <title>MXDC Copy</title>
    <desc>Created with Sketch.</desc>
    <defs></defs>
    <g id="Page-1" stroke="none" stroke-width="1" fill="none" fill-rule="evenodd">
        <g id="Desktop" transform="translate(-80.000000, -2097.000000)" fill="#FFFFFF">
            <path d="M80,2122.704 L80,2097.504 L87.38,2097.504 L93.392,2107.26 L99.404,2097.504 L106.784,2097.504 L106.784,2122.704 L99.836,2122.704 L99.836,2108.232 L93.392,2118.096 L93.248,2118.096 L86.84,2108.304 L86.84,2122.704 L80,2122.704 Z M109.412,2122.704 L118.052,2109.888 L109.772,2097.504 L117.8,2097.504 L122.264,2104.596 L126.764,2097.504 L134.612,2097.504 L126.332,2109.816 L134.972,2122.704 L126.944,2122.704 L122.12,2115.108 L117.26,2122.704 L109.412,2122.704 Z M137.6,2122.704 L137.6,2097.504 L147.32,2097.504 C156.32,2097.504 161.54,2102.688 161.54,2109.96 L161.54,2110.032 C161.54,2117.304 156.248,2122.704 147.176,2122.704 L137.6,2122.704 Z M177.272,2123.208 C170.072,2123.208 164.276,2117.7 164.276,2110.176 L164.276,2110.104 C164.276,2102.76 169.928,2097 177.56,2097 C182.708,2097 186.02,2099.16 188.252,2102.256 L182.996,2106.324 C181.556,2104.524 179.9,2103.372 177.488,2103.372 C173.96,2103.372 171.476,2106.36 171.476,2110.032 L171.476,2110.104 C171.476,2113.884 173.96,2116.836 177.488,2116.836 C180.116,2116.836 181.664,2115.612 183.176,2113.776 L188.432,2117.52 C186.056,2120.796 182.852,2123.208 177.272,2123.208 Z" id="MXDC-Copy"></path>
        </g>
    </g>
</svg>